<svg xmlns="http://www.w3.org/2000/svg" version="1.1" xmlns:xlink="http://www.w3.org/1999/xlink" xmlns:svgjs="http://svgjs.dev/svgjs" width="1500" height="1500" viewBox="0 0 1500 1500"><rect width="1500" height="1500" fill="#000000"></rect><g transform="matrix(0.6666666666666666,0,0,0.6666666666666666,249.39393939393938,693.6427831875565)"><svg viewBox="0 0 396 45" data-background-color="#f9f6ed" preserveAspectRatio="xMidYMid meet" height="170" width="1500" xmlns="http://www.w3.org/2000/svg" xmlns:xlink="http://www.w3.org/1999/xlink"><g id="tight-bounds" transform="matrix(1,0,0,1,0.2400000000000091,-0.12286979505915951)"><svg viewBox="0 0 395.52 45.24573959011835" height="45.24573959011835" width="395.52"><g><svg viewBox="0 0 459.7577794073142 52.59425758898265" height="45.24573959011835" width="395.52"><g transform="matrix(1,0,0,1,64.23777940731422,13.966860344573112)"><svg viewBox="0 0 395.52 24.660536899836426" height="24.660536899836426" width="395.52"><g id="textblocktransform"><svg viewBox="0 0 395.52 24.660536899836426" height="24.660536899836426" width="395.52" id="textblock"><g><svg viewBox="0 0 395.52 24.660536899836426" height="24.660536899836426" width="395.52"><g transform="matrix(1,0,0,1,0,0)"><svg width="395.52" viewBox="4.7 -32.05 514.2 32.4" height="24.660536899836426" data-palette-color="#21272d"><g class="wordmark-text-0" data-fill-palette-color="primary" id="text-0"><path d="M29.5-32.05L29.3-10 29.4 0 25.45 0 25.65-9.65 25.6-14.45 16.7-14.5 8.55-14.45 8.5-10 8.65 0 4.7 0 4.85-9.65 4.7-32.05 8.7-32.05 8.55-17.85 17.05-17.8 25.6-17.85 25.45-32.05 29.5-32.05ZM47.25-3L53.9-3.2 54.2-2.9 53.85 0 38.7 0 38.85-7.5 38.7-24.9 53.95-24.9 54.2-24.6 53.9-21.7 47.6-21.9 42.4-21.85 42.35-14.3 47.3-14.25 51.65-14.4 51.9-14.05 51.6-11.1 47-11.25 42.35-11.2 42.3-7.8 42.35-3.05 47.25-3ZM71.1-24.9L79.85 0 76.1 0 75.5-2.7 74.2-6.4 68.25-6.45 62.95-6.4 61.6-2.9 60.9 0 57.2 0 66.8-24.9 71.1-24.9ZM68.55-9.4L73.15-9.45 69-21.25 68.7-21.25 64.15-9.45 68.55-9.4ZM99.24-3.15L99.44-2.8 99.19 0 85.94 0 86.09-7.5 85.94-24.9 89.69-24.9 89.54-7.8 89.64-3.15 99.24-3.15ZM120.44-24.9L120.64-24.6 120.39-21.45 115.74-21.8 113.24-21.8 113.09-7.8 113.24 0 109.49 0 109.64-7.5 109.54-21.8 107.04-21.8 102.29-21.45 101.99-21.8 102.29-24.9 120.44-24.9ZM147.59-24.9L147.44-7.8 147.54 0 143.84 0 143.99-7.5 143.94-10.9 130.39-10.85 130.34-7.8 130.44 0 126.74 0 126.89-7.5 126.74-24.9 130.49-24.9 130.39-14.2 137.14-14.15 143.94-14.2 143.84-24.9 147.59-24.9Z" fill="#ffffff" data-fill-palette-color="primary"></path><path d="M184.29-24.9L186.84 0 183.49 0 182.94-7.6 181.59-19.1 181.29-19.1 174.14-2.8 171.19-2.8 164.44-19.1 164.14-19.1 162.84-7.9 162.14 0 158.94 0 161.69-24.9 166.04-24.9 167.29-21.15 172.74-7.75 173.04-7.75 178.74-21.35 180.04-24.9 184.29-24.9ZM205.14-24.9L213.89 0 210.14 0 209.54-2.7 208.24-6.4 202.29-6.45 196.99-6.4 195.64-2.9 194.94 0 191.24 0 200.84-24.9 205.14-24.9ZM202.59-9.4L207.18-9.45 203.04-21.25 202.74-21.25 198.19-9.45 202.59-9.4ZM239.18-24.9L230.83-13 239.78 0 235.28 0 234.13-2.15 228.33-10.1 222.28-1.95 221.18 0 217.23 0 226.13-12.5 217.48-24.9 222.13-24.9 223.18-22.8 228.63-15.35 234.08-22.85 235.13-24.9 239.18-24.9Z" fill="#ffffff" data-fill-palette-color="accent"></path><path d="M273.33-25L273.18-7.45 273.23 0 269.23 0 256.13-19 255.88-19 255.83-8.3 255.93 0 252.53 0 252.68-7.35 252.58-24.9 256.53-24.9 269.63-5.9 269.98-5.9 269.88-24.75 273.33-25ZM301.62-24.9L301.48-12.25 301.48-8.65Q301.53-4.4 298.9-2.05 296.28 0.3 291.37 0.3L291.37 0.3Q286.53 0.3 283.98-2.02 281.43-4.35 281.53-8.65L281.53-8.65 281.58-12.45 281.53-24.9 285.28-24.9 285.08-9.25Q285.03-6.1 286.65-4.5 288.28-2.9 291.53-2.9L291.53-2.9Q294.73-2.9 296.37-4.5 298.03-6.1 297.98-9.25L297.98-9.25 297.83-24.9 301.62-24.9ZM321.22-10.05Q324.27-5.4 327.97-0.9L327.97-0.9 327.92-0.4Q325.82 0.25 324.47 0.35L324.47 0.35 323.82-0.05Q320.02-5.8 318.07-9.1L318.07-9.1 313.37-9.05 313.37-7.8 313.47 0 309.77 0 309.92-7.5 309.77-24.9 318.27-24.95Q322.22-24.95 324.35-23.1 326.47-21.25 326.47-17.75L326.47-17.75Q326.47-15.2 325.1-13.2 323.72-11.2 321.22-10.05L321.22-10.05ZM313.47-21.9L313.42-12.15 318.12-12Q322.57-13.25 322.57-17.45L322.57-17.45Q322.57-19.65 321.27-20.75 319.97-21.85 317.32-21.95L317.32-21.95 313.47-21.9ZM341.92-25.15Q344.97-25.15 348.02-23.95L348.02-23.95 347.37-20.25 346.77-20.1Q345.37-21.2 344.12-21.73 342.87-22.25 341.52-22.25L341.52-22.25Q339.37-22.25 338.12-21.13 336.87-20 336.87-18.55L336.87-18.55Q336.87-17.1 338.1-16.2 339.32-15.3 341.87-14.2L341.87-14.2Q344.12-13.2 345.45-12.4 346.77-11.6 347.75-10.28 348.72-8.95 348.72-7.05L348.72-7.05Q348.72-5.1 347.67-3.43 346.62-1.75 344.6-0.73 342.57 0.3 339.77 0.3L339.77 0.3Q338.02 0.3 336.1-0.13 334.17-0.55 332.52-1.4L332.52-1.4 332.97-5.35 333.47-5.55Q334.87-4.15 336.75-3.38 338.62-2.6 340.22-2.6L340.22-2.6Q342.32-2.6 343.67-3.73 345.02-4.85 345.02-6.45L345.02-6.45Q345.02-7.95 343.8-8.85 342.57-9.75 339.97-10.95L339.97-10.95Q337.82-11.9 336.45-12.7 335.07-13.5 334.12-14.83 333.17-16.15 333.17-18.05L333.17-18.05Q333.17-20.05 334.25-21.65 335.32-23.25 337.3-24.2 339.27-25.15 341.92-25.15L341.92-25.15ZM359.57-24.9L359.42-7.8 359.52 0 355.82 0 355.97-7.5 355.82-24.9 359.57-24.9ZM389.57-25L389.42-7.45 389.47 0 385.47 0 372.37-19 372.12-19 372.07-8.3 372.17 0 368.77 0 368.92-7.35 368.82-24.9 372.77-24.9 385.87-5.9 386.22-5.9 386.12-24.75 389.57-25ZM409.36-25.15Q413.26-25.15 417.21-23.45L417.21-23.45 415.96-19.85 415.51-19.85Q413.66-21.05 412.11-21.53 410.56-22 408.76-22L408.76-22Q404.51-22 402.39-19.6 400.26-17.2 400.26-12.1L400.26-12.1Q400.26-7.2 402.21-5.03 404.16-2.85 408.41-2.85L408.41-2.85Q409.66-2.85 410.81-3.08 411.96-3.3 413.61-3.9L413.61-3.9 413.61-6.4 413.56-9.95 417.01-10.2 417.01-1.2Q411.96 0.3 408.26 0.3L408.26 0.3Q402.36 0.3 399.34-2.88 396.31-6.05 396.31-11.95L396.31-11.95Q396.31-18.35 399.74-21.75 403.16-25.15 409.36-25.15L409.36-25.15Z" fill="#ffffff" data-fill-palette-color="primary"></path><path d="M439.66-25.15Q443.81-25.15 446.86-23.4L446.86-23.4 446.16-19.95 445.71-19.8Q444.46-20.85 442.81-21.45 441.16-22.05 439.26-22.05L439.26-22.05Q435.56-22.05 433.61-19.68 431.66-17.3 431.66-12.6L431.66-12.6Q431.66-7.85 433.61-5.35 435.56-2.85 439.26-2.85L439.26-2.85Q441.06-2.85 442.88-3.48 444.71-4.1 446.16-5.15L446.16-5.15 446.61-5 446.26-1.55Q442.86 0.3 439.11 0.3L439.11 0.3Q433.61 0.3 430.66-2.98 427.71-6.25 427.71-12.3L427.71-12.3Q427.71-18.45 430.83-21.8 433.96-25.15 439.66-25.15L439.66-25.15ZM463.66-24.9L472.41 0 468.66 0 468.05-2.7 466.76-6.4 460.8-6.45 455.51-6.4 454.16-2.9 453.45 0 449.76 0 459.35-24.9 463.66-24.9ZM461.1-9.4L465.7-9.45 461.55-21.25 461.26-21.25 456.7-9.45 461.1-9.4ZM490.05-10.05Q493.1-5.4 496.8-0.9L496.8-0.9 496.75-0.4Q494.65 0.25 493.3 0.35L493.3 0.35 492.65-0.05Q488.85-5.8 486.9-9.1L486.9-9.1 482.2-9.05 482.2-7.8 482.3 0 478.6 0 478.75-7.5 478.6-24.9 487.1-24.95Q491.05-24.95 493.18-23.1 495.3-21.25 495.3-17.75L495.3-17.75Q495.3-15.2 493.93-13.2 492.55-11.2 490.05-10.05L490.05-10.05ZM482.3-21.9L482.25-12.15 486.95-12Q491.4-13.25 491.4-17.45L491.4-17.45Q491.4-19.65 490.1-20.75 488.8-21.85 486.15-21.95L486.15-21.95 482.3-21.9ZM511.95-3L518.6-3.2 518.9-2.9 518.55 0 503.4 0 503.55-7.5 503.4-24.9 518.65-24.9 518.9-24.6 518.6-21.7 512.3-21.9 507.1-21.85 507.05-14.3 512-14.25 516.35-14.4 516.6-14.05 516.3-11.1 511.7-11.25 507.05-11.2 507-7.8 507.05-3.05 511.95-3Z" fill="#ffffff" data-fill-palette-color="accent"></path></g></svg></g></svg></g></svg></g></svg></g><g><svg viewBox="0 0 52.59425758898265 52.59425758898265" height="52.59425758898265" width="52.59425758898265"><g><svg></svg></g><g id="icon-0"><svg viewBox="0 0 52.59425758898265 52.59425758898265" height="52.59425758898265" width="52.59425758898265"><g><path d="M0 26.297c0-14.524 11.774-26.297 26.297-26.297 14.524 0 26.297 11.774 26.297 26.297 0 14.524-11.774 26.297-26.297 26.297-14.524 0-26.297-11.774-26.297-26.297zM26.297 50.37c13.295 0 24.073-10.778 24.073-24.073 0-13.295-10.778-24.073-24.073-24.073-13.295 0-24.073 10.778-24.073 24.073 0 13.295 10.778 24.073 24.073 24.073z" data-fill-palette-color="accent" fill="#ffffff" stroke="transparent"></path></g><g transform="matrix(1,0,0,1,20.71296829502673,17.91674803551843)"><svg viewBox="0 0 11.16832099892919 16.760761517945785" height="16.760761517945785" width="11.16832099892919"><g><svg xmlns="http://www.w3.org/2000/svg" xmlns:xlink="http://www.w3.org/1999/xlink" version="1.1" x="0" y="0" viewBox="18.6 5.805887625061008 59.49999999999999 89.29411237493899" enable-background="new 0 0 100 100" xml:space="preserve" height="16.760761517945785" width="11.16832099892919" class="icon-cg-0" data-fill-palette-color="accent" id="cg-0"><g fill="#ea5141" data-fill-palette-color="accent"><path d="M77.4 78c-0.6-0.7-2.4-0.9-3.9-0.7-0.7 0.1-11.2 3.2-11.2 3.2 0.3 0.9 0.8 2.6-1 4.4-1.2 1.1-3.1 1.4-5.5 1.3-2.4 0-5-0.4-7.1-0.7-0.7-0.1-2.5-0.3-2.5-0.3s1.3-0.6 3-0.6c2.2-0.1 3.9-0.1 4.9 0 1.1 0.1 2.6 0.2 3.3 0.2 3 0.1 3.7-1.8 3.7-2.5 0-2.1-1.2-2.8-4.9-3.2-2.4-0.2-5-0.4-6.8-0.6-3.5-0.4-6-1.4-7.2-1.5-0.9-0.1-3.1-0.5-5.3 1.3C30.4 83.6 18.6 87 18.6 87c1.8 5.9 11.6 8.1 11.6 8.1 4.2-3.8 8.8-4.2 12.8-4.4 0.7 0 7.3 0 13.4 0.7 1.2 0.1 2.3-0.6 2.3-0.6 9.2-5.9 17-9.1 17-9.1 1.9-0.7 2.4-1.5 2.4-2.2C78.1 78.4 77.4 78 77.4 78z" fill="#ffffff" data-fill-palette-color="accent"></path><path d="M74.6 38.2c-0.1 0-0.2 0-0.3 0 0.7-0.5 1.3-1.3 1.4-2.3 0.3-1.5-0.5-3-1.8-3.7 0-0.1 0-0.1 0.1-0.2 0.3-1.9-1-3.7-2.9-4.1-1.9-0.3-3.7 1-4.1 2.9 0.3-1.9-1-3.7-2.9-4.1-1.7-0.3-3.4 0.7-3.9 2.3-0.3-1.3-1.4-2.4-2.8-2.6-0.3-0.1-0.6-0.1-0.9 0 1-1.7 1.9-4.8-1.8-5.7-0.7-0.1-1.3 0-1.9 0.3-1.6-2.2-2.9-4.4-2.8-6.9 0.4 0.1 0.8 0.1 1.2 0.2 0.2 0 0.4 0 0.5 0 0.1 0.8 0.2 1.5 0.4 2.3 0.2 0.9 0.6 1.8 1.1 2.6 0.5 0.8 1.3 1.5 2.4 1.8 0.9 0.2 1.8 0 2.6-0.4 0.4 0.4 0.9 0.7 1.4 0.9 0.9 0.4 1.9 0.6 2.8 0.7 1 0.1 1.9-0.1 2.8-0.3-0.9 0.1-1.9 0.2-2.8 0-0.9-0.1-1.8-0.4-2.6-0.8-0.4-0.2-0.8-0.5-1.1-0.8 0.7-0.5 1.3-1 1.9-1.6l0 0c0 0 0.1-0.1 0.1-0.1 0.1-0.3 0.2-0.5 0.3-0.8 0-0.3 0-0.6-0.1-0.9-0.2-0.6-0.7-1-1.2-1.2-0.5-0.2-1.1-0.3-1.7-0.2-0.3 0.1-0.6 0.2-0.8 0.4-0.2 0.2-0.4 0.5-0.5 0.8l0 0c0 0 0 0 0 0.1 0 0.5 0 1 0.1 1.5 0.1 0.5 0.3 1 0.6 1.4 0 0.1 0.1 0.1 0.1 0.2-0.5 0.2-1.1 0.3-1.6 0.2-0.7-0.2-1.3-0.7-1.7-1.3-0.4-0.7-0.8-1.4-1-2.2-0.2-0.6-0.3-1.3-0.3-2 0.7 0 1.4-0.1 2.1-0.2 0.6-0.1 1.2-0.3 1.8-0.8 0.3-0.2 0.6-0.6 0.6-1.1 0-0.5-0.2-0.8-0.4-1.1 0 0 0 0 0 0l0 0c-0.3-0.3-0.6-0.7-1-1-0.4-0.3-0.8-0.6-1.3-0.7-0.5-0.2-1.2-0.1-1.7 0.3-0.5 0.4-0.7 0.9-0.9 1.3-0.3 0.9-0.4 1.7-0.4 2.6-0.2 0-0.3 0-0.5 0-0.4 0-0.8 0-1.2-0.1 0-0.2 0.1-0.5 0.1-0.7 1.1-2.1 1.4-4.5 0.6-7-0.3-0.8-2.3 0.2-2 1 0.5 1.4 0.5 2.8 0.2 4.1-0.3 0.6-0.6 1.3-0.7 1.9 0 0.1-0.1 0.1-0.1 0.2-0.2 0-0.3-0.1-0.5-0.1-1.1-0.3-2.3-0.8-3.2-1.6 0.8 0.9 1.9 1.5 3.1 1.9 0.1 0 0.3 0.1 0.4 0.1-1.4 2.4-3.8 4.6-6.2 6.3-0.5-1-1.4-1.7-2.5-1.9-1.9-0.3-3.7 0.9-4 2.8-0.2 0.9 0.1 1.8 0.6 2.5 0 0 0 0 0 0-0.2 0-0.4 0-0.6 0-0.5-1-1.4-1.7-2.5-1.9-1.9-0.3-3.7 0.9-4 2.8-0.2 1.3 0.3 2.5 1.2 3.3-1.1 0.4-2 1.4-2.2 2.7-0.3 1.9 0.9 3.7 2.8 4 0.1 0 0.3 0 0.4 0 0.4 1.2 1.4 2.1 2.7 2.3 0.5 0.1 1 0.1 1.5-0.1 0 0.3 0 0.6 0 0.9-0.3-0.1-0.6-0.3-1-0.3-0.8-0.1-1.5 0-2.2 0.3-0.4-1.1-1.4-2-2.7-2.2-1.9-0.3-3.7 0.9-4 2.8-0.3 1.9 0.9 3.7 2.8 4 0.8 0.1 1.5 0 2.2-0.3 0.4 1.1 1.4 2 2.7 2.2 1.9 0.3 3.7-0.9 4-2.8 0.1-0.4 0.1-0.8 0-1.2 0.3 0.1 0.6 0.3 1 0.3 1.5 0.3 2.9-0.5 3.6-1.7 0.1 0.2 0.3 0.3 0.5 0.5-2.5 5 2.2 5.8 2.7 6-0.8 0.6-1.3 1.5-1.5 2.5-0.4 2.2 1.1 4.3 3.3 4.7 0 0 0 0 0.1 0 0 1 0.5 2 1.3 2.5-0.8 0.4-1.4 1.2-1.6 2.2-0.2 1 0.2 1.9 0.8 2.6-1.3 0.2-2.4 1.2-2.6 2.6-0.3 1.7 0.9 3.4 2.6 3.6 1.1 0.2 2.2-0.2 2.9-1 0.5 0.6 1.2 1 2 1.2 0.7 0.1 1.3 0 1.9-0.2-0.6 0.5-1 1.1-1.1 1.9-0.2 1 0.1 1.9 0.7 2.6-0.8 0.5-1.4 1.2-1.5 2.2-0.3 1.7 0.9 3.4 2.6 3.6 1.7 0.3 3.4-0.9 3.6-2.6 0.2-1-0.1-1.9-0.7-2.6 0.8-0.5 1.4-1.2 1.5-2.2 0-0.2 0-0.4 0-0.5 0.1 0 0.3 0.1 0.4 0.1 0.4 0.1 0.7 0 1.1 0-0.5 0.5-0.9 1.1-1 1.8-0.3 1.7 0.9 3.4 2.6 3.6 1.7 0.3 3.4-0.9 3.6-2.6 0.3-1.7-0.9-3.4-2.6-3.6-0.3 0-0.6 0-0.8 0 0.2-0.1 0.3-0.3 0.5-0.5 0.4 0.3 0.9 0.6 1.5 0.7 1.7 0.3 3.4-0.9 3.6-2.6 0.2-1.2-0.3-2.4-1.3-3.1 1.1-0.3 2-1.3 2.2-2.5 0.3-1.5-0.6-3-2-3.5 0.5-0.5 0.9-1.1 1-1.8 0.1-0.4 0.1-0.8 0-1.2 0.2 0.1 0.4 0.1 0.6 0.2 1.9 0.3 3.7-0.9 4-2.8 1.6 0.1 3-1 3.3-2.6 0.2-1.3-0.4-2.5-1.4-3.2 1.4-0.1 2.5-1.2 2.8-2.6C77.5 40.1 76.3 38.5 74.6 38.2zM57.5 16.8c0.1-0.3 0.4-0.5 0.7-0.6 0.3-0.1 0.8 0 1.1 0.2 0.3 0.2 0.6 0.4 0.7 0.7 0.1 0.3 0.1 0.6-0.1 0.9-0.6 0.6-1.2 1.1-1.8 1.4 0-0.1-0.1-0.1-0.1-0.2C57.6 18.5 57.4 17.6 57.5 16.8zM53.1 11.5c0.1-0.4 0.3-0.7 0.5-0.9 0.2-0.2 0.5-0.2 0.8-0.2 0.3 0.1 0.7 0.3 1 0.5 0.3 0.2 0.6 0.5 0.9 0.8 0.1 0.2 0.2 0.4 0.2 0.5 0 0.2-0.1 0.3-0.3 0.5-0.4 0.3-0.9 0.5-1.5 0.7-0.6 0.2-1.3 0.2-2 0.3C52.8 13 52.8 12.2 53.1 11.5zM60.1 31.1c0.1 0.6 0.4 1.1 0.8 1.5-0.4-0.2-0.8-0.4-1.3-0.5 0 0 0 0-0.1 0C59.8 31.8 60 31.5 60.1 31.1zM46.2 32c-0.1 0.5-0.1 1 0 1.5-0.4-0.3-0.9-0.6-1.5-0.7-1.5-0.3-2.9 0.5-3.6 1.7-0.5-0.6-1.2-1-2-1.2-0.5-0.1-1-0.1-1.5 0.1 0.1-1.3-0.5-2.5-1.5-3.1 0.2 0 0.3-0.1 0.5-0.2 0.4 1.4 1.6 2.5 3.2 2.8 2.2 0.4 4.3-1.1 4.7-3.3 0.4-2.2-1.1-4.3-3.3-4.7-1-0.2-2 0.1-2.8 0.5-0.1-0.2-0.2-0.3-0.3-0.4 0 0 0 0 0 0 1.9 0.3 3.7-0.9 4-2.8 0-0.2 0-0.4 0-0.6 2-1.5 4.2-3.4 5.9-5.3 0.2 2.4 1.6 4.6 3.2 6.7-0.1 0.2-0.1 0.3-0.1 0.5-0.1 0.7 0 1.3 0.3 1.9-0.2 0.1-0.4 0.2-0.6 0.3 0 0 0 0 0 0 0.3-1.9-0.9-3.7-2.8-4-1.9-0.3-3.7 0.9-4 2.8-0.3 1.9 0.9 3.7 2.8 4 0.9 0.1 1.7 0 2.4-0.5-0.1 0.4 0 0.8 0 1.1C47.7 29.2 46.5 30.4 46.2 32zM48.7 37.6c0 0.1 0.1 0.2 0.1 0.3-0.1-0.1-0.2-0.1-0.2-0.2C48.6 37.7 48.6 37.7 48.7 37.6zM49.6 44.7c-0.3-0.2-0.6-0.4-0.9-0.5 0.8-0.6 1.3-1.5 1.5-2.5 0.1-0.8 0-1.5-0.2-2.2 0.4 0.3 0.9 0.6 1.5 0.7 1.9 0.3 3.7-1 4.1-2.9 0.3-1.6-0.6-3.1-2-3.8 0-0.1 0.1-0.2 0.1-0.4 0.1-0.6 0-1.2-0.2-1.8 0.1 0 0.1 0 0.2-0.1 0.5 1 1.4 1.8 2.6 2 0 0 0 0 0.1 0-0.3 0.4-0.6 1-0.7 1.5-0.2 1.4 0.4 2.7 1.5 3.5-1.8-0.1-3.4 1.1-3.7 2.9-0.1 0.7 0 1.5 0.3 2.1-0.2-0.1-0.4-0.1-0.6-0.2C51.7 43 50.4 43.6 49.6 44.7zM53.6 59C53.6 59 53.6 59 53.6 59c-0.1 0-0.2 0-0.4-0.1-0.3-0.1-0.7 0-1 0 0.2-0.3 0.3-0.6 0.4-1 0.2-1.2-0.3-2.4-1.3-3.1 0.5-0.3 1-0.7 1.3-1.3 0.2 1.5 1.3 2.8 2.9 3.1 0 0 0 0 0 0C54.5 57 53.8 57.8 53.6 59zM56.6 64.1c-0.1 0.3-0.1 0.6 0 0.9 0 0-0.1 0-0.1 0-0.6-0.1-1.2 0-1.7 0.2 0.6-0.5 1.1-1.3 1.3-2.1 0-0.1 0-0.2 0-0.4 0 0 0 0 0 0 0.4 0.1 0.8 0 1.1 0C57 63 56.7 63.5 56.6 64.1zM62.6 62.2c-0.5-0.5-1.1-0.9-1.9-1-0.5-0.1-0.9-0.1-1.4 0 0.2-0.3 0.3-0.6 0.4-0.9 0.5 0.4 1 0.7 1.7 0.8 0.7 0.1 1.4 0 2-0.2 0.2 0.2 0.3 0.4 0.5 0.5C63.4 61.6 63 61.8 62.6 62.2zM69.7 46.1C69.7 46.1 69.7 46.1 69.7 46.1c-2-0.3-3.8 0.9-4.1 2.9-0.1 0.5 0 1.1 0.1 1.6-0.1 0-0.2-0.1-0.4-0.1-0.6-0.1-1.1 0-1.6 0.2 0.7-0.5 1.2-1.3 1.4-2.2 0.3-1.9-1-3.7-2.9-4.1-1.9-0.3-3.7 1-4.1 2.9-0.3 1.9 1 3.7 2.9 4.1 0.6 0.1 1.3 0 1.8-0.2-0.6 0.5-1.1 1.2-1.2 2-0.1 0.4-0.1 0.8 0 1.2-1.5 0.1-2.8 1.2-3.2 2.8-0.4-0.3-0.8-0.5-1.3-0.6 1.1-0.4 2-1.4 2.2-2.7 0.3-1.9-1-3.7-2.9-4.1-1.6-0.3-3.1 0.6-3.8 2-0.1-0.5-0.2-1-0.5-1.4 1.7 0.1 3.3-1.2 3.6-2.9 0.1-0.7 0-1.5-0.3-2.1 0.2 0.1 0.4 0.1 0.6 0.2 1.9 0.3 3.7-1 4.1-2.9 0.2-1.4-0.4-2.7-1.5-3.5 1.8 0.1 3.4-1.1 3.7-2.9 0.2-1.1-0.2-2.2-0.9-2.9 0.4 0.2 0.8 0.4 1.3 0.5-0.3 1.9 1 3.7 2.9 4.1 0.7 0.1 1.4 0 2-0.3-0.2 0.3-0.3 0.6-0.4 1-0.5-0.4-1-0.6-1.6-0.7-1.9-0.3-3.7 1-4.1 2.9-0.3 1.9 1 3.7 2.9 4.1 1.8 0.3 3.6-0.9 4-2.6 0.5 0.4 1 0.6 1.6 0.7 0.4 0.1 0.7 0 1.1 0 0.3 0.5 0.6 0.9 1.1 1.1C71.2 44.1 70.1 44.9 69.7 46.1z" fill="#ffffff" data-fill-palette-color="accent"></path></g></svg></g></svg></g></svg></g></svg></g></svg></g><defs></defs></svg><rect width="395.52" height="45.24573959011835" fill="none" stroke="none" visibility="hidden"></rect></g></svg></g></svg>